<svg xmlns="http://www.w3.org/2000/svg" xmlns:xlink="http://www.w3.org/1999/xlink" width="629.058" height="94.364" viewBox="0 0 629.058 94.364">
  <defs>
    <linearGradient id="linear-gradient" y1="0.5" x2="1" y2="0.5" gradientUnits="objectBoundingBox">
      <stop offset="0" stop-color="#ffd78f"/>
      <stop offset="0.501" stop-color="#be8735"/>
      <stop offset="1" stop-color="#764314"/>
    </linearGradient>
  </defs>
  <g id="Group_1291" data-name="Group 1291" transform="translate(-404.658 -583.16)">
    <g id="Group_1280" data-name="Group 1280" transform="translate(404.658 605.977)">
      <g id="Group_1273" data-name="Group 1273" transform="translate(579.724 0)">
        <path id="Path_1971" data-name="Path 1971" d="M5637.42,790.549a4.043,4.043,0,0,0,2.792-1.438h1.023v10.3h-1.742v-7.727h-2.073Z" transform="translate(-5637.42 -789.111)" fill="#fff"/>
        <path id="Path_1972" data-name="Path 1972" d="M5749.344,796.852c.042.442.788,1.23,2.129,1.23,1.506,0,2.958-.912,3.013-3.221a4.847,4.847,0,0,1-3.055,1.023c-2.737,0-4.091-1.576-4.091-3.29,0-2.032,1.6-3.483,4.244-3.483,2.558,0,4.824,1.576,4.824,5.115,0,2.405-1.189,5.432-4.921,5.432-2.792,0-3.912-1.742-3.981-2.806Zm2.226-2.488a3.957,3.957,0,0,0,2.875-1.244,2.746,2.746,0,0,0-2.82-2.433c-1.354,0-2.447.608-2.447,1.852C5749.178,793.6,5750.076,794.364,5751.569,794.364Z" transform="translate(-5735.162 -789.111)" fill="#fff"/>
        <path id="Path_1973" data-name="Path 1973" d="M5876.9,794.129V794.1a2.254,2.254,0,0,1-1.562-2.212c0-1.562,1.341-2.778,4.271-2.778,3,0,4.285,1.341,4.285,2.778a2.245,2.245,0,0,1-1.576,2.212v.028a2.651,2.651,0,0,1,1.8,2.516c0,2.17-2,3.013-4.506,3.013s-4.506-.843-4.506-3.013A2.651,2.651,0,0,1,5876.9,794.129Zm2.709,3.953c1.534,0,2.668-.387,2.668-1.6,0-1.258-1.3-1.534-2.668-1.534s-2.668.277-2.668,1.534C5876.94,797.7,5878.074,798.082,5879.608,798.082Zm0-4.658c1.4,0,2.5-.3,2.5-1.382,0-1.244-1.673-1.355-2.5-1.355s-2.488.111-2.488,1.355C5877.121,793.12,5878.212,793.424,5879.608,793.424Z" transform="translate(-5848.77 -789.111)" fill="#fff"/>
        <path id="Path_1974" data-name="Path 1974" d="M6000.991,798.027l5.1-3.1c1.078-.65,2.1-1.285,2.115-2.433.014-1.811-2.06-1.811-2.585-1.811a2.438,2.438,0,0,0-2.668,1.949h-1.838c0-1.424,1.23-3.525,4.493-3.525,2.295,0,4.437.815,4.437,3.414,0,1.659-1.133,2.7-2.488,3.456l-3.124,1.769v.028h5.487v1.631h-8.93Z" transform="translate(-5960.712 -789.111)" fill="#fff"/>
      </g>
      <g id="Group_1279" data-name="Group 1279" transform="translate(0 0)">
        <g id="Group_1274" data-name="Group 1274">
          <path id="Path_1975" data-name="Path 1975" d="M404.658,791.357h9.013v1.687h-7.05v2.336h6.068v1.686h-6.068v2.654h7.215v1.686h-9.178Z" transform="translate(-404.658 -791.108)" fill="#fff"/>
          <path id="Path_1976" data-name="Path 1976" d="M541.324,792.416c-.318-.9-1.134-1.673-3.525-1.673-1.327,0-2.668.332-2.668,1.258,0,.428.249.885,2.253,1.133l2.378.359c2.253.346,3.58,1.216,3.58,2.9,0,2.378-2.267,3.262-4.949,3.262-4.313,0-5.363-2.129-5.6-2.889l1.894-.594c.359.733,1.106,1.8,3.76,1.8,1.6,0,2.93-.525,2.93-1.4,0-.65-.746-1.078-2.184-1.258l-2.405-.332c-2.322-.318-3.622-1.327-3.622-2.861,0-3.013,3.912-3.013,4.686-3.013,4.327,0,5.073,2,5.322,2.7Z" transform="translate(-518.599 -789.112)" fill="#fff"/>
          <path id="Path_1977" data-name="Path 1977" d="M676.778,793.044h-4.492v-1.687h10.948v1.687h-4.493v8.363h-1.963Z" transform="translate(-642.636 -791.108)" fill="#fff"/>
        </g>
        <g id="Group_1278" data-name="Group 1278" transform="translate(45.823 0.386)">
          <g id="Group_1275" data-name="Group 1275">
            <path id="Path_1978" data-name="Path 1978" d="M818.267,792.6h2.563c1.684,0,3.032.71,3.032,2.629,0,1.816-1.23,2.695-2.988,2.695h-2.607Zm2.094,4.431c1.772,0,2.461-.542,2.461-1.787,0-1.3-.718-1.75-2.461-1.75h-1.054v3.537Z" transform="translate(-818.267 -792.6)" fill="#fff"/>
          </g>
          <g id="Group_1277" data-name="Group 1277" transform="translate(1.958 7.943)">
            <g id="Group_1276" data-name="Group 1276">
              <path id="Path_1979" data-name="Path 1979" d="M836.755,864.3a.816.816,0,1,1-.816.816A.836.836,0,0,1,836.755,864.3Z" transform="translate(-835.939 -864.3)" fill="#fff"/>
            </g>
          </g>
        </g>
      </g>
    </g>
    <g id="Group_1285" data-name="Group 1285" transform="translate(623.085 661.439)">
      <g id="Group_1281" data-name="Group 1281" transform="translate(26.131)">
        <path id="Path_1980" data-name="Path 1980" d="M2612.107,1293.158h2.994v12.669h11.109v2.656h-14.1Z" transform="translate(-2612.107 -1292.778)" fill="#fff"/>
        <path id="Path_1981" data-name="Path 1981" d="M2817.416,1289.732c6.746,0,9.128,3.963,9.128,8.158,0,3.183-1.876,7.926-9.128,7.926s-9.128-4.743-9.128-7.926C2808.288,1293.7,2810.67,1289.732,2817.416,1289.732Zm6.135,7.99c0-3.689-2.635-5.418-6.135-5.418s-6.134,1.729-6.134,5.418c0,4.343,3.268,5.523,6.134,5.523S2823.55,1302.064,2823.55,1297.722Z" transform="translate(-2786.553 -1289.732)" fill="#fff"/>
        <path id="Path_1982" data-name="Path 1982" d="M3053.939,1293.158h3.162l10.245,11.067v-11.067h2.867v15.325h-2.74l-10.667-11.468v11.468h-2.867Z" transform="translate(-3004.99 -1292.778)" fill="#fff"/>
        <path id="Path_1983" data-name="Path 1983" d="M3290.647,1293.158h7.378c4.848,0,8.727,2.045,8.727,7.568,0,5.228-3.542,7.758-8.6,7.758h-7.5Zm6.029,12.753c5.1,0,7.083-1.56,7.083-5.144,0-3.752-2.066-5.038-7.083-5.038h-3.035v10.181Z" transform="translate(-3215.473 -1292.778)" fill="#fff"/>
        <path id="Path_1984" data-name="Path 1984" d="M3517.074,1289.732c6.746,0,9.128,3.963,9.128,8.158,0,3.183-1.876,7.926-9.128,7.926s-9.127-4.743-9.127-7.926C3507.947,1293.7,3510.329,1289.732,3517.074,1289.732Zm6.135,7.99c0-3.689-2.635-5.418-6.135-5.418s-6.134,1.729-6.134,5.418c0,4.343,3.268,5.523,6.134,5.523S3523.209,1302.064,3523.209,1297.722Z" transform="translate(-3408.699 -1289.732)" fill="#fff"/>
        <path id="Path_1985" data-name="Path 1985" d="M3753.6,1293.158h3.162L3767,1304.225v-11.067h2.867v15.325h-2.74l-10.667-11.468v11.468H3753.6Z" transform="translate(-3627.135 -1292.778)" fill="#fff"/>
      </g>
      <g id="Group_1284" data-name="Group 1284" transform="translate(0 6.685)">
        <g id="Group_1282" data-name="Group 1282">
          <circle id="Ellipse_17" data-name="Ellipse 17" cx="2.041" cy="2.041" r="2.041" fill="#fff"/>
        </g>
        <g id="Group_1283" data-name="Group 1283" transform="translate(191.701)">
          <circle id="Ellipse_18" data-name="Ellipse 18" cx="2.041" cy="2.041" r="2.041" fill="#fff"/>
        </g>
      </g>
    </g>
    <g id="Group_1290" data-name="Group 1290" transform="translate(481.244 583.16)">
      <g id="Group_1288" data-name="Group 1288" transform="translate(0 0.015)">
        <g id="Group_1286" data-name="Group 1286" transform="translate(3.697 3.896)">
          <path id="Path_1986" data-name="Path 1986" d="M1129.315,626.657h34.3v9.768h-12.266v39.222h-9.768V636.425h-12.266Z" transform="translate(-1129.315 -625.748)" fill="#2b0509"/>
          <path id="Path_1987" data-name="Path 1987" d="M1555.229,636.425H1530.7v9.843h19.611v9.768H1530.7v9.843h24.533v9.768h-34.3v-48.99h34.3Z" transform="translate(-1477.543 -625.748)" fill="#2b0509"/>
          <path id="Path_1988" data-name="Path 1988" d="M1947.864,675.647l-9.995-16.355h-5.3v16.355H1922.8v-48.99h19.611a16.223,16.223,0,0,1,9.238,2.65c3.029,2.2,5.452,6.285,5.452,13.629,0,4.77-1.06,8.177-2.574,10.6a11.986,11.986,0,0,1-5.755,4.695l11.358,17.415Zm-15.295-39.222v13.1h9.843c2.8,0,4.922-1.666,4.922-6.588,0-4.846-2.12-6.512-4.922-6.512Z" transform="translate(-1834.893 -625.748)" fill="#2b0509"/>
          <path id="Path_1989" data-name="Path 1989" d="M2356.566,675.647l-9.995-16.355h-5.3v16.355H2331.5v-48.99h19.611a16.224,16.224,0,0,1,9.238,2.65c3.029,2.2,5.452,6.285,5.452,13.629,0,4.77-1.06,8.177-2.574,10.6a11.984,11.984,0,0,1-5.755,4.695l11.358,17.415Zm-15.3-39.222v13.1h9.844c2.8,0,4.922-1.666,4.922-6.588,0-4.846-2.12-6.512-4.922-6.512Z" transform="translate(-2198.315 -625.748)" fill="#2b0509"/>
          <path id="Path_1990" data-name="Path 1990" d="M2712.479,626.657h10.9l-17.415,29.379v19.611h-9.844V656.036l-17.415-29.379h10.9l11.434,20.6Z" transform="translate(-2507.055 -625.748)" fill="#2b0509"/>
          <path id="Path_1991" data-name="Path 1991" d="M3152.92,623.3a5.342,5.342,0,0,1-.454,1.817,8.5,8.5,0,0,0-.378.984,28.073,28.073,0,0,1-4.013,5.225c-.833.833-1.666,1.666-2.5,2.423l-1.893-1.363,1.59-2.726a9.347,9.347,0,0,0,1.06-2.953,3.967,3.967,0,0,1-2.877-3.71,4.572,4.572,0,0,1,4.619-4.543A4.88,4.88,0,0,1,3152.92,623.3Z" transform="translate(-2920.314 -618.456)" fill="#2b0509"/>
          <path id="Path_1992" data-name="Path 1992" d="M3307.606,632.388c0,2.726,2.65,4.164,6.209,5.528,1.741.681,3.71,1.439,5.754,2.12,4.089,1.514,7.723,3.635,10.146,7.193a12.283,12.283,0,0,1,1.741,6.815c0,4.77-1.59,8.026-3.862,10.3a16.561,16.561,0,0,1-7.723,4.165,21.472,21.472,0,0,1-5.452.757c-5.376,0-9.086-1.211-11.585-3.029a12.588,12.588,0,0,1-4.694-6.436,19.3,19.3,0,0,1-.909-5.906h9.843c0,2.65.909,4.164,2.272,5.073a9.812,9.812,0,0,0,5,1.287,9.268,9.268,0,0,0,5.073-.984,4.343,4.343,0,0,0,2.271-3.937c0-2.726-2.65-4.316-6.209-5.679-1.741-.681-3.71-1.363-5.754-2.12-4.165-1.439-7.8-3.635-10.146-7.118a11.442,11.442,0,0,1-1.817-6.739c0-4.846,1.59-8.253,3.786-10.449a15.463,15.463,0,0,1,7.421-4.089,23.308,23.308,0,0,1,5.452-.681c6.663,0,10.676,2.044,13.023,4.695a15.98,15.98,0,0,1,3.483,8.556l-9.313.833a5.374,5.374,0,0,0-2.574-4.089,9.7,9.7,0,0,0-4.695-.984C3310.635,627.466,3307.606,628.451,3307.606,632.388Z" transform="translate(-3057.055 -618.456)" fill="#2b0509"/>
          <path id="Path_1993" data-name="Path 1993" d="M3909.784,663.13a23.836,23.836,0,0,1-33.316-1.363,25.48,25.48,0,0,1-7.193-17.945,25.75,25.75,0,0,1,7.193-17.945,23.924,23.924,0,0,1,33.316-1.287l-6.966,7.117a14.027,14.027,0,0,0-9.086-3.256,14.454,14.454,0,0,0-10.449,4.467,15.866,15.866,0,0,0-4.316,10.9,15.54,15.54,0,0,0,4.316,10.828,14.229,14.229,0,0,0,10.449,4.543,13.969,13.969,0,0,0,9.086-3.18Z" transform="translate(-3565.722 -618.456)" fill="#2b0509"/>
          <path id="Path_1994" data-name="Path 1994" d="M4316.774,675.647l-2.423-9.768h-15.3l-2.423,9.768h-9.768l12.493-48.99h14.69l12.569,48.99Zm-15.3-19.611h10.449l-5.224-20.141Z" transform="translate(-3937.048 -625.748)" fill="#2b0509"/>
          <path id="Path_1995" data-name="Path 1995" d="M4723.793,656.036v19.611h-9.768v-48.99h34.3v9.768h-24.533v9.843H4743.4v9.768Z" transform="translate(-4316.884 -625.748)" fill="#2b0509"/>
          <path id="Path_1996" data-name="Path 1996" d="M5133.1,636.425h-24.533v9.843h19.611v9.768h-19.611v9.843H5133.1v9.768h-34.3v-48.99h34.3Z" transform="translate(-4659.033 -625.748)" fill="#2b0509"/>
        </g>
        <g id="_3D_Shadows" data-name="3D Shadows" transform="translate(0 0.909)">
          <path id="Path_1997" data-name="Path 1997" d="M1111.908,644.379l-3.7-3.9,1.849-36.723-10.418,1.4-3.7-3.9,34.3-9.768,3.7,3.9-6.058,7.493-10.511,1.464.54,38.786Z" transform="translate(-1095.944 -591.494)" fill="#2b0509"/>
          <path id="Path_1998" data-name="Path 1998" d="M1487.558,640.483l3.7,3.9,34.3-9.768-3.7-3.9-23.326.231,1.025-8.014L1520.633,615l-3.7-3.9-18.551,4.921-1.189-13.9,28.358-6.739-3.7-3.9-29.18,8.315Z" transform="translate(-1444.172 -591.494)" fill="#2b0509"/>
          <path id="Path_1999" data-name="Path 1999" d="M2301.1,678.685l-3.7-3.9,11.093-22.547h9.755l5.828-8.161-4.314-12.514,8.278-1.494,3.276,3.446-3.7,24.158-2.293,6.05.836,14.957-3.7-3.9-1.042-14.769-13.026-1.464Z" transform="translate(-2164.298 -625.799)" fill="#2b0509"/>
          <path id="Path_2000" data-name="Path 2000" d="M1893.127,678.685l-3.7-3.9,11.092-22.547h9.755l5.828-8.161-4.314-12.514,8.278-1.494,3.276,3.446-3.7,24.158-2.293,6.05.836,14.957-3.7-3.9-1.042-14.769-13.026-1.464Z" transform="translate(-1801.521 -625.799)" fill="#2b0509"/>
          <path id="Path_2001" data-name="Path 2001" d="M2743.754,591.494l3.7,3.9,8,18.177,22.069-22.073,3.7,3.9-22.337,29.154-4.922,19.836-3.7-3.9,5.042-23.8Z" transform="translate(-2561.197 -591.494)" fill="#2b0509"/>
          <path id="Path_2002" data-name="Path 2002" d="M3117.724,613.882l5.766-14.008-3.587-3.763-5.876,11.542-1.893.97,3.7,3.9Z" transform="translate(-2888.765 -595.6)" fill="#2b0509"/>
          <path id="Path_2003" data-name="Path 2003" d="M3291.924,913.211l4.332,4.55,6.1-10.715-3.7-3.9Z" transform="translate(-3048.637 -868.622)" fill="#2b0509"/>
          <path id="Path_2004" data-name="Path 2004" d="M3483.935,632.411l3.7,3.9,7.353-1.948-2.35-8.282-3.175-3.384Z" transform="translate(-3219.375 -619.236)" fill="#2b0509"/>
          <path id="Path_2005" data-name="Path 2005" d="M3301.59,801.561l-4.356-4.577,5.048,1.161Z" transform="translate(-3053.358 -774.218)" fill="#2b0509"/>
          <path id="Path_2006" data-name="Path 2006" d="M4145.641,638.652l3.7,3.9-6.966,7.118-3.7-3.9Z" transform="translate(-3801.578 -633.427)" fill="#2b0509"/>
          <path id="Path_2007" data-name="Path 2007" d="M4204.708,990.427l-3.7-3.9-.067,2.652Z" transform="translate(-3856.948 -942.766)" fill="#2b0509"/>
          <path id="Path_2008" data-name="Path 2008" d="M4253.494,640.483l3.7,3.9,9.815-9.981,17.465-1.406-1.068,7.491,3.7,3.9,6.307-2.972-9.033-46.017-3.7-3.9,1.577,33.274-19.441,1.629Z" transform="translate(-3903.677 -591.494)" fill="#2b0509"/>
          <path id="Path_2009" data-name="Path 2009" d="M5065.432,640.483l3.7,3.9,34.3-9.768-3.7-3.9-23.413.8.683-10.245,21.5-6.274-3.7-3.9-21.271,1.681,3.123-8.245,26.768-9.151-3.7-3.9L5068.954,604.2Z" transform="translate(-4625.663 -591.494)" fill="#2b0509"/>
          <path id="Path_2010" data-name="Path 2010" d="M4684.351,644.379l-3.7-3.9,5.8-40.431,28.5-8.559,3.7,3.9-2.63,7.4-24.882.049.342,10.977,18.551-2.705,3.7,3.9-21.809,8.616Z" transform="translate(-4283.512 -591.494)" fill="#2b0509"/>
        </g>
        <g id="Group_1287" data-name="Group 1287">
          <path id="Path_2011" data-name="Path 2011" d="M1095.944,591.494h34.3v9.768h-12.266v39.222h-9.768V601.262h-12.266Z" transform="translate(-1095.944 -590.585)" fill="#fff"/>
          <path id="Path_2012" data-name="Path 2012" d="M1521.858,601.262h-24.533v9.843h19.611v9.768h-19.611v9.844h24.533v9.768h-34.3v-48.99h34.3Z" transform="translate(-1444.172 -590.585)" fill="#fff"/>
          <path id="Path_2013" data-name="Path 2013" d="M1914.492,640.484l-9.995-16.355h-5.3v16.355h-9.768v-48.99h19.611a16.223,16.223,0,0,1,9.238,2.65c3.029,2.2,5.452,6.285,5.452,13.629,0,4.77-1.06,8.177-2.574,10.6a11.984,11.984,0,0,1-5.755,4.695l11.358,17.415Zm-15.3-39.222v13.1h9.844c2.8,0,4.922-1.666,4.922-6.588,0-4.846-2.12-6.512-4.922-6.512Z" transform="translate(-1801.521 -590.585)" fill="#fff"/>
          <path id="Path_2014" data-name="Path 2014" d="M2323.195,640.484l-9.995-16.355h-5.3v16.355h-9.768v-48.99h19.611a16.222,16.222,0,0,1,9.238,2.65c3.029,2.2,5.452,6.285,5.452,13.629,0,4.77-1.06,8.177-2.574,10.6a11.984,11.984,0,0,1-5.754,4.695l11.358,17.415Zm-15.3-39.222v13.1h9.844c2.8,0,4.922-1.666,4.922-6.588,0-4.846-2.12-6.512-4.922-6.512Z" transform="translate(-2164.945 -590.585)" fill="#fff"/>
          <path id="Path_2015" data-name="Path 2015" d="M2679.106,591.494h10.9l-17.415,29.379v19.611h-9.843V620.873l-17.416-29.379h10.9l11.433,20.6Z" transform="translate(-2473.683 -590.585)" fill="#fff"/>
          <path id="Path_2016" data-name="Path 2016" d="M3119.549,588.138a5.338,5.338,0,0,1-.455,1.817,8.5,8.5,0,0,0-.378.984,28.056,28.056,0,0,1-4.013,5.225c-.833.833-1.666,1.666-2.5,2.423l-1.893-1.363,1.59-2.726a9.344,9.344,0,0,0,1.061-2.953,3.967,3.967,0,0,1-2.877-3.71,4.572,4.572,0,0,1,4.619-4.543A4.88,4.88,0,0,1,3119.549,588.138Z" transform="translate(-2886.943 -583.292)" fill="#fff"/>
          <path id="Path_2017" data-name="Path 2017" d="M3274.235,597.224c0,2.726,2.65,4.165,6.209,5.528,1.742.681,3.71,1.439,5.755,2.12,4.088,1.514,7.723,3.634,10.146,7.193a12.283,12.283,0,0,1,1.742,6.815c0,4.77-1.59,8.026-3.862,10.3a16.56,16.56,0,0,1-7.724,4.165,21.469,21.469,0,0,1-5.452.757c-5.376,0-9.086-1.211-11.584-3.029a12.588,12.588,0,0,1-4.695-6.436,19.315,19.315,0,0,1-.908-5.906h9.843c0,2.65.909,4.164,2.271,5.073a9.811,9.811,0,0,0,5,1.287,9.268,9.268,0,0,0,5.074-.984,4.342,4.342,0,0,0,2.271-3.937c0-2.726-2.65-4.316-6.208-5.679-1.742-.681-3.71-1.363-5.755-2.12-4.165-1.439-7.8-3.635-10.146-7.118a11.442,11.442,0,0,1-1.817-6.739c0-4.846,1.59-8.253,3.786-10.449a15.46,15.46,0,0,1,7.42-4.089,23.314,23.314,0,0,1,5.452-.681c6.664,0,10.677,2.044,13.024,4.695a15.978,15.978,0,0,1,3.483,8.556l-9.313.833a5.373,5.373,0,0,0-2.574-4.089,9.7,9.7,0,0,0-4.695-.984C3277.264,592.3,3274.235,593.287,3274.235,597.224Z" transform="translate(-3023.684 -583.292)" fill="#fff"/>
          <path id="Path_2018" data-name="Path 2018" d="M3876.413,627.966A23.836,23.836,0,0,1,3843.1,626.6a25.479,25.479,0,0,1-7.193-17.945,25.749,25.749,0,0,1,7.193-17.945,23.924,23.924,0,0,1,33.316-1.287l-6.966,7.118a14.027,14.027,0,0,0-9.086-3.256,14.454,14.454,0,0,0-10.449,4.467,15.865,15.865,0,0,0-4.316,10.9,15.539,15.539,0,0,0,4.316,10.828,14.229,14.229,0,0,0,10.449,4.543,13.969,13.969,0,0,0,9.086-3.18Z" transform="translate(-3532.35 -583.292)" fill="#fff"/>
          <path id="Path_2019" data-name="Path 2019" d="M4283.4,640.484l-2.423-9.768h-15.3l-2.423,9.768h-9.768l12.493-48.99h14.69l12.569,48.99Zm-15.3-19.611h10.45l-5.225-20.141Z" transform="translate(-3903.677 -590.585)" fill="#fff"/>
          <path id="Path_2020" data-name="Path 2020" d="M4690.42,620.873v19.611h-9.768v-48.99h34.3v9.768H4690.42v9.843h19.611v9.768Z" transform="translate(-4283.512 -590.585)" fill="#fff"/>
          <path id="Path_2021" data-name="Path 2021" d="M5099.733,601.262H5075.2v9.843h19.611v9.768H5075.2v9.844h24.533v9.768h-34.3v-48.99h34.3Z" transform="translate(-4625.663 -590.585)" fill="#fff"/>
        </g>
      </g>
      <g id="Group_1289" data-name="Group 1289" transform="translate(0.045)">
        <path id="Path_2022" data-name="Path 2022" d="M1096.346,591.575a.363.363,0,0,1,.259-.073h34.051c.148,0,.222.05.222.148v9.761c0,.1-.074.148-.221.148h-11.906v38.71q0,.222-.187.222H1108.7q-.15,0-.15-.222v-38.71h-11.87c-.147,0-.233-.049-.257-.148v-9.617A.291.291,0,0,1,1096.346,591.575Zm.718.291,4.474,4.405h24.143l4.46-4.405Zm16.77,43.485,4.437,4.474V601.483l-4.437-4.537Zm12.215-38.855,4.386,4.388v-8.727Z" transform="translate(-1096.346 -590.578)" fill="url(#linear-gradient)"/>
        <path id="Path_2023" data-name="Path 2023" d="M1486.465,640.268V591.576l.074-.074h34.31v.074h.074v9.832l-.074.075a.066.066,0,0,1-.074.075H1496.6v9.428h19.225l.111.073h.074v.073a.065.065,0,0,1,.074.073v9.724l-.074.075a.066.066,0,0,1-.074.075H1496.6v9.28h24.18a.065.065,0,0,0,.074.074v.074h.074v9.761a.212.212,0,0,1-.074.148l-.074.074h-34.088A.2.2,0,0,1,1486.465,640.268Zm.666-48.47,4.474,4.474h24.143l4.474-4.474Zm4.621,23.7,4.474-4.4v-9.617l-4.474-4.537Zm0,19.447,4.474-4.461v-9.478l-4.474-4.5Zm.222-19.151h18.93l4.474-4.437h-18.93Zm0,19.41h23.773l4.474-4.474h-23.773Zm19.336-19.261,4.289,4.43v-8.72Zm4.843-19.445,4.363,4.388V592.1Zm0,38.858,4.363,4.4v-8.8Z" transform="translate(-1443.245 -590.578)" fill="url(#linear-gradient)"/>
        <path id="Path_2024" data-name="Path 2024" d="M1888.931,640.268V591.576a.065.065,0,0,0,.074-.074h19.6a21.554,21.554,0,0,1,4.622.575,12.6,12.6,0,0,1,4.862,2.281,12.78,12.78,0,0,1,3.79,4.971,20.523,20.523,0,0,1,1.516,8.569v.153a.184.184,0,0,1-.074.141v.069q0,.062-.085.946t-.176,1.965l-.033.393q-1.127,8.787-7.817,11.482l11.129,17.146v.222h-.074v.074h-12.273a.211.211,0,0,1-.148-.074l-9.859-16.157h-4.917v16.157h-.074l-.074.074h-9.761A.2.2,0,0,1,1888.931,640.268Zm.629-48.4,4.474,4.4h14.53q5.139,0,7.542,2.8t2.4,8.823a16.977,16.977,0,0,1-1.072,6.455,9.512,9.512,0,0,0-.333,1.069,6.9,6.9,0,0,0-.222,1.4,5.65,5.65,0,0,0,.074,1.313.875.875,0,0,0,.556.758,1.917,1.917,0,0,0,.593.074q2.457,0,3.985-4.363a10.93,10.93,0,0,0,.6-3.032,1.074,1.074,0,0,0,.017-.22l.132-1.65s.024-.311.074-.933v0s.012-.153.037-.463.037-.465.037-.464a19.9,19.9,0,0,0-1.473-8.356,12.848,12.848,0,0,0-3.679-4.843,11.675,11.675,0,0,0-4.7-2.237,21.919,21.919,0,0,0-4.566-.536Zm4.659,26.953,4.474-4.414V601.483l-4.474-4.537Zm0,16.49,4.474,4.474v-15.6l-4.474-4.442Zm.3-16.342h14.062a11.21,11.21,0,0,0,5.463-1.183q1.624-1.257,1.624-2.034a1.018,1.018,0,0,0-.036-.248,1.122,1.122,0,0,0-.786-.637,8.771,8.771,0,0,0-1.5-.336,12.092,12.092,0,0,0-1.727-.124,7.944,7.944,0,0,0-1.571.142q-.3,0-.666.029t-.629.028h-9.76Zm4.547-4.732h9.539q4.621,0,4.622-6.341t-4.622-6.341h-9.539Zm8.171,5.43,10.138,15.578,8.171,4.474-10.814-16.6Z" transform="translate(-1801.123 -590.578)" fill="url(#linear-gradient)"/>
        <path id="Path_2025" data-name="Path 2025" d="M2297.4,640.268V591.576a.065.065,0,0,0,.074-.074h19.6a21.557,21.557,0,0,1,4.622.575,12.607,12.607,0,0,1,4.862,2.281,12.778,12.778,0,0,1,3.79,4.971,20.526,20.526,0,0,1,1.516,8.569v.153a.184.184,0,0,1-.074.141v.069q0,.062-.085.946t-.176,1.965l-.033.393q-1.128,8.787-7.817,11.482l11.128,17.146v.222h-.074v.074h-12.273a.211.211,0,0,1-.148-.074l-9.859-16.157h-4.917v16.157h-.074l-.074.074h-9.761A.2.2,0,0,1,2297.4,640.268Zm.628-48.4,4.474,4.4h14.53q5.139,0,7.542,2.8t2.4,8.823a16.985,16.985,0,0,1-1.072,6.455,9.423,9.423,0,0,0-.333,1.069,6.877,6.877,0,0,0-.222,1.4,5.664,5.664,0,0,0,.074,1.313.875.875,0,0,0,.557.758,1.916,1.916,0,0,0,.593.074q2.457,0,3.985-4.363a10.921,10.921,0,0,0,.6-3.032,1.051,1.051,0,0,0,.017-.22q.131-1.65.132-1.65s.024-.311.074-.933v0s.012-.153.037-.463l.037-.464a19.907,19.907,0,0,0-1.472-8.356,12.852,12.852,0,0,0-3.679-4.843,11.677,11.677,0,0,0-4.7-2.237,21.915,21.915,0,0,0-4.566-.536Zm4.658,26.953,4.474-4.414V601.483l-4.474-4.537Zm0,16.49,4.474,4.474v-15.6l-4.474-4.442Zm.3-16.342h14.062a11.208,11.208,0,0,0,5.462-1.183q1.624-1.257,1.624-2.034a1.034,1.034,0,0,0-.036-.248,1.122,1.122,0,0,0-.787-.637,8.768,8.768,0,0,0-1.5-.336,12.091,12.091,0,0,0-1.727-.124,7.942,7.942,0,0,0-1.571.142q-.3,0-.666.029c-.247.019-.457.028-.628.028h-9.761Zm4.548-4.732h9.539q4.621,0,4.622-6.341t-4.622-6.341h-9.539Zm8.17,5.43,10.139,15.578,8.17,4.474-10.814-16.6Z" transform="translate(-2164.342 -590.578)" fill="url(#linear-gradient)"/>
        <path id="Path_2026" data-name="Path 2026" d="M2646.809,591.8v-.3h11.055l.074.074,11.094,20.076,11.164-20.076a.066.066,0,0,0,.074-.074h11.054v.074h.074v.148h-.074v.074l-17.192,29.1v19.373q0,.075-.148.222h-.074a.21.21,0,0,1-.148-.074h-9.539a.237.237,0,0,1-.258-.222v-19.3Zm.887.074,7.357,4.4,2.33-4.4Zm7.619,4.622,13.5,22.886V612.1l-5.546-9.982-5.509-10.019Zm13.936,38.636,4.511,4.7V620.71l16.785-28.469-3.253,2-4.141,2.4-13.9,23.551Zm11.461-43.257,2.366,4.4,3.4-2.033,3.919-2.366Z" transform="translate(-2475.037 -590.578)" fill="url(#linear-gradient)"/>
        <path id="Path_2027" data-name="Path 2027" d="M3110.012,587.948a4.943,4.943,0,0,1,1.024-2.988,4.371,4.371,0,0,1,2.856-1.726H3114a2.141,2.141,0,0,1,.649-.074,5.071,5.071,0,0,1,5.086,5.124,4.685,4.685,0,0,1-.408,1.742,7.658,7.658,0,0,1-.483,1.067.8.8,0,0,0-.205.357.786.786,0,0,1-.206.355l-.149.15-.149.3-.149.3h-.074l-.448.711a6.532,6.532,0,0,0-.56.674,36.508,36.508,0,0,1-2.555,2.856q-1.25,1.244-1.755,1.671c-.048,0-.072.013-.072.037s-.024.037-.072.037v.074h-.108c0,.05-.049.074-.148.074h-.074v-.074l-1.75-1.229c-.19,0-.215-.075-.072-.225a17.366,17.366,0,0,0,2.44-5.43,4.4,4.4,0,0,1-1.883-1.385A3.622,3.622,0,0,1,3110.012,587.948Zm2.329-3.745,2.958,4.157a4.693,4.693,0,0,0,.167.637,3.918,3.918,0,0,1-.031,1.685,14.641,14.641,0,0,1-.815,2.7,15.9,15.9,0,0,1-2.171,3.632v1.16l.072-.074c.1,0,.145-.05.145-.15.047,0,.12-.05.216-.15l.145-.187.217-.225.072-.075.289-.3.288-.3.181-.15.288-.3.145-.187a2.106,2.106,0,0,0,.36-.449c.048,0,.072-.012.072-.037s.024-.037.072-.037a3.578,3.578,0,0,1,.774-.825.217.217,0,0,1,.075-.15l.373-.412a.6.6,0,0,0,.112-.15.609.609,0,0,1,.112-.15,1.63,1.63,0,0,1,.3-.374c.049-.05.075-.087.075-.112s.025-.062.074-.113a2.435,2.435,0,0,0,.205-.224c.037-.05.081-.113.131-.188,0-.05.012-.075.037-.075s.038-.025.038-.075a1.076,1.076,0,0,0,.187-.225,1.053,1.053,0,0,1,.187-.225l.224-.449q.149-.149.149-.225a4.055,4.055,0,0,0,.373-.712,3.31,3.31,0,0,0,.466-.955,4.441,4.441,0,0,0,.392-1.629,4.671,4.671,0,0,0-1.337-3.37,4.41,4.41,0,0,0-3.3-1.385,1.837,1.837,0,0,0-.577.074H3114a1.365,1.365,0,0,0-.541.15A4.833,4.833,0,0,0,3112.341,584.2Z" transform="translate(-2886.923 -583.16)" fill="url(#linear-gradient)"/>
        <path id="Path_2028" data-name="Path 2028" d="M3263.524,618.542v-.3c0-.1.061-.16.185-.185h9.761c.1,0,.148.062.148.185v.222l.074.074a5.609,5.609,0,0,0,1.664,4.474q1.664,1.442,5.287,1.59a1.393,1.393,0,0,0,.555.074,1.025,1.025,0,0,0,.444-.074,9.746,9.746,0,0,0,1.738-.2,8.017,8.017,0,0,0,2.052-.684,4.609,4.609,0,0,0,1.664-1.386,3.923,3.923,0,0,0,.684-2.422,3.313,3.313,0,0,0-.721-2.126,7.158,7.158,0,0,0-1.9-1.627,17.147,17.147,0,0,0-2.773-1.331q-1.59-.61-3.327-1.2-2.515-.924-5.195-2.015a19.566,19.566,0,0,1-4.825-2.791,14.05,14.05,0,0,1-3.549-4.215,12.407,12.407,0,0,1-1.4-6.137,16.56,16.56,0,0,1,.979-6.045,13.65,13.65,0,0,1,2.533-4.215,12.632,12.632,0,0,1,3.475-2.736,17.65,17.65,0,0,1,3.753-1.5,23.356,23.356,0,0,1,3.346-.647,23,23,0,0,1,2.329-.166h.222q14.826,0,16.6,13.347a.212.212,0,0,1-.074.148l-.074.074h-.074l-9.243.813a.131.131,0,0,1-.148-.148q-.666-4.843-7.062-4.843-6.508,0-6.507,4.7a.506.506,0,0,0,.037.222.646.646,0,0,1,.037.259v.222a.661.661,0,0,1,.074.3.3.3,0,0,1,.074.222l.148.3a.149.149,0,0,0,.037.111.153.153,0,0,1,.037.111,1.744,1.744,0,0,1,.259.333l.074.148a1.193,1.193,0,0,1,.222.3.131.131,0,0,1,.148.148,1.188,1.188,0,0,1,.3.222l.148.148a.92.92,0,0,1,.185.111.819.819,0,0,0,.185.111c0,.1.061.148.185.148a.519.519,0,0,1,.185.13.5.5,0,0,0,.185.129c.049.05.086.074.111.074s.061.025.111.074a1.669,1.669,0,0,0,.37.222c.049.05.086.074.111.074s.061.025.111.074a.908.908,0,0,1,.185.111.816.816,0,0,0,.222.111.335.335,0,0,1,.148.037.325.325,0,0,0,.148.037l.443.222a.153.153,0,0,1,.111.037.148.148,0,0,0,.111.037l.444.222a.333.333,0,0,1,.166.055.329.329,0,0,0,.166.055l.444.222a.428.428,0,0,1,.3.148,3.136,3.136,0,0,1,.518.148.561.561,0,0,1,.333.148,1.143,1.143,0,0,1,.444.148.5.5,0,0,1,.37.148q.443.148.85.3a4.272,4.272,0,0,1,1.294.481q2.44.851,4.844,1.941a18.923,18.923,0,0,1,4.381,2.754,13.023,13.023,0,0,1,3.217,4.085,12.658,12.658,0,0,1,1.239,5.823v1.22a.825.825,0,0,1-.074.37,3.5,3.5,0,0,1-.074.813v.407q-.148.592-.222.813v.3c-.05.148-.1.314-.148.5s-.1.376-.148.573-.1.376-.148.536a3.608,3.608,0,0,1-.222.536,5.629,5.629,0,0,1-.314.666,4.692,4.692,0,0,0-.314.7l-.148.148a11.538,11.538,0,0,1-4.122,4.418,22.676,22.676,0,0,1-4.954,2.292,19.067,19.067,0,0,1-4.215.887q-1.794.129-2.015.129a21.526,21.526,0,0,1-9.021-1.59,13.6,13.6,0,0,1-5.213-3.974,12.727,12.727,0,0,1-2.385-5.047A23.171,23.171,0,0,1,3263.524,618.542Zm1,.222,4.548,4.1,2.514-2.736,1.183-1.368ZM3266,591.737a5.96,5.96,0,0,0-.037.666,2.908,2.908,0,0,0,.074.7q.3.665.592.739a1.243,1.243,0,0,0,.555.148q1.516,0,3.919-2.7a10.252,10.252,0,0,1,3.568-2.625q1.608-.591,1.682-.591a19.806,19.806,0,0,1,4.585-.518,14.618,14.618,0,0,1,4.6.647,13.247,13.247,0,0,1,3.179,1.479,10.2,10.2,0,0,1,1.885,1.553q.647.721.795.869l5.4,4.03a1.374,1.374,0,0,0-.055-.351,1.367,1.367,0,0,1-.056-.351.819.819,0,0,1-.074-.37.823.823,0,0,0-.074-.37,2.5,2.5,0,0,1-.148-.776l-.222-.666-.222-.7a5.588,5.588,0,0,0-.222-.592c-.05-.1-.1-.209-.148-.333s-.1-.234-.148-.333a1.524,1.524,0,0,1-.111-.277.61.61,0,0,0-.222-.277q-.074-.147-.148-.333t-.147-.333a1.609,1.609,0,0,1-.3-.481,4.45,4.45,0,0,0-.444-.591.881.881,0,0,0-.148-.222.826.826,0,0,1-.147-.222c-.1-.1-.191-.185-.277-.259a2.116,2.116,0,0,1-.277-.3,2.147,2.147,0,0,0-.37-.444,1.857,1.857,0,0,0-.259-.222,1.776,1.776,0,0,1-.259-.222,1.9,1.9,0,0,1-.406-.37.86.86,0,0,0-.3-.2.847.847,0,0,1-.3-.2,1.091,1.091,0,0,0-.222-.185,1.014,1.014,0,0,1-.222-.185,3.545,3.545,0,0,0-.351-.148,3.217,3.217,0,0,1-.351-.148,4.927,4.927,0,0,0-.518-.3,2.924,2.924,0,0,0-.665-.3,3.372,3.372,0,0,1-.554-.259q-.37-.147-.814-.3a.627.627,0,0,0-.277-.074.616.616,0,0,1-.277-.074l-.887-.222a.6.6,0,0,0-.259-.074.839.839,0,0,1-.3-.074,1.52,1.52,0,0,0-.481-.074,1.5,1.5,0,0,1-.481-.074,1.208,1.208,0,0,1-.3-.037,1.392,1.392,0,0,0-.333-.037,4.913,4.913,0,0,0-1.035-.074,1.782,1.782,0,0,0-.555-.074,5.186,5.186,0,0,0-.85-.074h-1.257a21.624,21.624,0,0,0-2.551.222,20.015,20.015,0,0,0-3.66.869,18.033,18.033,0,0,0-3.974,1.923A11.706,11.706,0,0,0,3266.7,590,4.375,4.375,0,0,0,3266,591.737Zm3.143,5.915a9.06,9.06,0,0,0,.222,1.886,7.707,7.707,0,0,0,.906,2.218,9.608,9.608,0,0,0,1.941,2.311,12.865,12.865,0,0,0,3.291,2.052l4.548,1.812q2.587,1,4.936,1.978a20.3,20.3,0,0,1,4.085,2.237,11.152,11.152,0,0,1,2.829,2.921,7.581,7.581,0,0,1,1.165,3.993v.444a11.751,11.751,0,0,1-.592,3.808l-.222.813a10.377,10.377,0,0,0-.647,2.366,2.83,2.83,0,0,0,.166,1.885.882.882,0,0,0,.629.3,2.032,2.032,0,0,0,1.035-.37,5.984,5.984,0,0,0,1.091-.832,10.083,10.083,0,0,0,1.275-1.534,11.861,11.861,0,0,0,1.368-4.067.822.822,0,0,0,.074-.37,1.681,1.681,0,0,0,.074-.629,1.536,1.536,0,0,0,.074-.592,1.024,1.024,0,0,1,.074-.444V618.69a11.99,11.99,0,0,0-1.368-5.971,13.216,13.216,0,0,0-3.531-4.067,21.639,21.639,0,0,0-4.769-2.736q-2.606-1.09-5.084-1.9-.592-.222-1.128-.462a6.485,6.485,0,0,0-1.165-.388q-.075-.074-.111-.074c-.025,0-.062-.024-.111-.074a1.131,1.131,0,0,1-.444-.148.655.655,0,0,0-.185-.074.991.991,0,0,1-.222-.074.656.656,0,0,0-.185-.074.631.631,0,0,1-.185-.074.663.663,0,0,0-.185-.074.632.632,0,0,1-.185-.074c-.2-.1-.3-.16-.3-.185l-.444-.222a.556.556,0,0,1-.333-.148,1.282,1.282,0,0,1-.37-.148.429.429,0,0,0-.3-.148.6.6,0,0,0-.148-.111.557.557,0,0,1-.148-.111l-.3-.148a.512.512,0,0,0-.167-.111.479.479,0,0,1-.166-.111l-.222-.222a.918.918,0,0,1-.3-.259c-.05,0-.124-.049-.222-.148l-.222-.222-.222-.222c-.05-.049-.074-.086-.074-.111s-.037-.061-.111-.111a1.15,1.15,0,0,1-.222-.3.152.152,0,0,0-.037-.111.212.212,0,0,1-.037-.148c-.1-.1-.148-.172-.148-.222l-.148-.3a.153.153,0,0,0-.037-.111.289.289,0,0,1-.037-.185.152.152,0,0,0-.037-.111.148.148,0,0,1-.037-.111.43.43,0,0,0-.074-.3v-.333a.152.152,0,0,0-.037-.111.15.15,0,0,1-.037-.111V597.1a17.264,17.264,0,0,0,.111-1.811,3.519,3.519,0,0,0-.555-2.329.785.785,0,0,0-.555-.333h-.074a2.96,2.96,0,0,0-2.348,1.405A6.239,6.239,0,0,0,3269.144,597.653Zm.222,25.585a6.822,6.822,0,0,0,.647,1.276,8,8,0,0,0,1.775,2,13.181,13.181,0,0,0,3.069,1.867,11.075,11.075,0,0,0,4.6.85v0q6.211,0,9.613-2.44a4.867,4.867,0,0,0,1.7-2.144,3.878,3.878,0,0,0,.37-1.516,1.49,1.49,0,0,0-.111-.592q-.075-.591-.924-.591a4.674,4.674,0,0,0-1.2.259,8.164,8.164,0,0,0-2.126,1.183.979.979,0,0,1-.333.222.989.989,0,0,0-.333.222.3.3,0,0,1-.222.074,7.074,7.074,0,0,1-2.736,1h-.074a.829.829,0,0,0-.259.037.956.956,0,0,1-.3.037h-.222a.518.518,0,0,0-.222.037.327.327,0,0,1-.148.037h-1.294a4.709,4.709,0,0,1-.591-.037,4.856,4.856,0,0,0-.592-.037,1.15,1.15,0,0,0-.481-.074h-.148a.826.826,0,0,0-.37-.074.148.148,0,0,1-.111-.037.3.3,0,0,0-.185-.037.3.3,0,0,1-.222-.074,1.079,1.079,0,0,1-.406-.074.149.149,0,0,1-.111-.037.152.152,0,0,0-.111-.037.291.291,0,0,1-.185-.037.3.3,0,0,0-.185-.037.565.565,0,0,0-.111-.092.493.493,0,0,1-.111-.093.424.424,0,0,1-.3-.148.148.148,0,0,1-.111-.037.217.217,0,0,0-.148-.037.831.831,0,0,1-.185-.111.9.9,0,0,0-.185-.111.21.21,0,0,1-.148-.074.824.824,0,0,1-.185-.111.9.9,0,0,0-.185-.111l-.148-.148a.408.408,0,0,0-.148-.185.555.555,0,0,1-.148-.111c-.1-.1-.148-.172-.148-.222a.881.881,0,0,0-.167-.129.475.475,0,0,1-.166-.2c0-.049-.05-.123-.148-.222a.545.545,0,0,1-.111-.148.6.6,0,0,0-.111-.148.336.336,0,0,0-.037-.148.323.323,0,0,1-.037-.148.9.9,0,0,0-.111-.185.827.827,0,0,1-.111-.185.466.466,0,0,0-.037-.166.649.649,0,0,1-.037-.24.21.21,0,0,1-.074-.148.574.574,0,0,0-.074-.222.586.586,0,0,0-.074-.37.521.521,0,0,0-.037-.222.514.514,0,0,1-.037-.222v-.48a.521.521,0,0,0-.037-.222.51.51,0,0,1-.037-.222Z" transform="translate(-3023.428 -583.16)" fill="url(#linear-gradient)"/>
        <path id="Path_2029" data-name="Path 2029" d="M3835.186,608.6a25.511,25.511,0,0,1,1.035-7.32,26.029,26.029,0,0,1,2.921-6.47,26.737,26.737,0,0,1,4.455-5.379,22.866,22.866,0,0,1,5.749-3.9h.074a.427.427,0,0,1,.3-.148,2.854,2.854,0,0,1,.7-.3l.259-.129.259-.129.7-.222a4.207,4.207,0,0,1,.518-.222,2.441,2.441,0,0,1,.592-.148c.3-.1.5-.172.629-.222a.656.656,0,0,1,.3-.074.652.652,0,0,0,.3-.074.735.735,0,0,1,.333-.074.984.984,0,0,0,.37-.074.816.816,0,0,0,.259-.037.834.834,0,0,1,.259-.037,2.359,2.359,0,0,1,.666-.148,1.443,1.443,0,0,0,.314-.037,1.472,1.472,0,0,1,.314-.037,1.176,1.176,0,0,0,.333-.055,1.167,1.167,0,0,1,.333-.056,2.423,2.423,0,0,1,.7-.074,1.265,1.265,0,0,0,.518-.074h1.294a23.407,23.407,0,0,1,8.559,1.59,25.38,25.38,0,0,1,7.487,4.548v.37l-6.581,6.766-.3.3h-.259a13.57,13.57,0,0,0-8.91-3.18,13.429,13.429,0,0,0-7.949,2.514.885.885,0,0,0-.185.111.834.834,0,0,1-.222.111l-1.331,1.109v.074a13.773,13.773,0,0,0-3.66,5.25v.074a1.929,1.929,0,0,0-.111.259,2.152,2.152,0,0,1-.111.259.152.152,0,0,1-.037.111.149.149,0,0,0-.037.111,1.245,1.245,0,0,0-.148.555.652.652,0,0,0-.074.3,1.292,1.292,0,0,0-.111.37,1.32,1.32,0,0,1-.111.37,1.021,1.021,0,0,1-.037.277,1.009,1.009,0,0,0-.037.277.425.425,0,0,0-.074.3,1.639,1.639,0,0,0-.074.518.293.293,0,0,1-.037.185.292.292,0,0,0-.037.185v.555a.657.657,0,0,0-.074.3v.887a15.339,15.339,0,0,0,4.215,10.63,14.178,14.178,0,0,0,4.622,3.217,13.866,13.866,0,0,0,5.62,1.164,14.283,14.283,0,0,0,7.394-2.107q.369-.222.758-.5t.758-.573q.074-.074.259.074l6.877,7.025v.333l-.148.074a23.889,23.889,0,0,1-15.9,6.063,22.708,22.708,0,0,1-9.5-2.015,25.2,25.2,0,0,1-7.764-5.453,25.863,25.863,0,0,1-5.269-8.06A25.231,25.231,0,0,1,3835.186,608.6Zm5.25,0a20.255,20.255,0,0,0,5.62,14.1,19.4,19.4,0,0,0,6.1,4.27,18.186,18.186,0,0,0,7.505,1.553,18.4,18.4,0,0,0,4.548-.536,18.645,18.645,0,0,0,4.289-1.719v-5.176q-.665.444-1.257.776a13.864,13.864,0,0,1-7.579,2.107,14.1,14.1,0,0,1-5.8-1.2,14.676,14.676,0,0,1-4.7-3.29,16.049,16.049,0,0,1-3.18-4.88,15.228,15.228,0,0,1-1.183-6.008v-1.183a1.438,1.438,0,0,1,.037-.314,1.48,1.48,0,0,0,.037-.314v-.37a.594.594,0,0,0,.074-.259.59.59,0,0,1,.074-.259v-.3a.7.7,0,0,0,.074-.314.515.515,0,0,1,.111-.314.735.735,0,0,0,.074-.333.732.732,0,0,1,.074-.333.212.212,0,0,0,.074-.148.212.212,0,0,1,.074-.148,1.425,1.425,0,0,1,.148-.554.33.33,0,0,1,.037-.148.33.33,0,0,0,.037-.148,2.043,2.043,0,0,0,.111-.259,1.974,1.974,0,0,1,.111-.259.212.212,0,0,1,.074-.148,15.611,15.611,0,0,1,3.105-4.843c.1-.1.185-.178.259-.24s.16-.141.259-.24l.074-.074,1.368-1.146a2.26,2.26,0,0,0,.407-.3.212.212,0,0,0,.148-.074q.444-.3.961-.666a13.2,13.2,0,0,0,1.885-1.812,2.586,2.586,0,0,0,.314-.832,1.135,1.135,0,0,0-.129-.832,1.8,1.8,0,0,0-1.59-.85,8.04,8.04,0,0,0-1.5.259l-1.165.333q-.592.3-1.072.555a19.4,19.4,0,0,0-6.581,7.228A20.337,20.337,0,0,0,3840.436,608.6Zm6.655-19.447a.958.958,0,0,0,.684.684,3.779,3.779,0,0,0,1.127.166,11.248,11.248,0,0,0,3.254-.555q1.146-.3,2.4-.592,1.072-.222,2.44-.444a16.611,16.611,0,0,1,2.662-.222,17.672,17.672,0,0,1,4.806.665,17.027,17.027,0,0,1,4.252,1.812l6.47-1.294a1.312,1.312,0,0,1-.24-.148,1.406,1.406,0,0,0-.24-.148,1.6,1.6,0,0,0-.37-.3,1.087,1.087,0,0,0-.222-.185,1.011,1.011,0,0,1-.222-.185,2.2,2.2,0,0,0-.406-.333.836.836,0,0,1-.222-.148.9.9,0,0,0-.222-.148.844.844,0,0,1-.222-.148.885.885,0,0,0-.222-.148,1.7,1.7,0,0,1-.444-.3,2.126,2.126,0,0,1-.2-.111c-.037-.024-.1-.061-.2-.111a.738.738,0,0,0-.259-.185,1.922,1.922,0,0,1-.259-.111l-.444-.259-.48-.222a1.75,1.75,0,0,0-.444-.3l-.444-.222a1.2,1.2,0,0,0-.518-.148l-.48-.222a4.212,4.212,0,0,0-.518-.222.576.576,0,0,0-.222-.074.447.447,0,0,1-.222-.111,1.252,1.252,0,0,0-.554-.148,1.145,1.145,0,0,0-.444-.148,3.143,3.143,0,0,0-.518-.148,1.256,1.256,0,0,0-.555-.148.6.6,0,0,0-.259-.074.591.591,0,0,1-.259-.074.511.511,0,0,1-.222-.037.525.525,0,0,0-.222-.037.627.627,0,0,0-.277-.074.614.614,0,0,1-.277-.074,1.258,1.258,0,0,1-.518-.074.813.813,0,0,1-.259-.037.832.832,0,0,0-.259-.037,2.3,2.3,0,0,1-.628-.074h-.444a2.25,2.25,0,0,0-.666-.074h-.406a4.91,4.91,0,0,0-1.035-.074h-.61a2.511,2.511,0,0,0-.61.074h-.591a2.407,2.407,0,0,1-.7.074,1.754,1.754,0,0,0-.333.037,1.7,1.7,0,0,1-.333.037,1.394,1.394,0,0,1-.554.074.728.728,0,0,1-.333.074.735.735,0,0,0-.333.074.832.832,0,0,0-.259.037.814.814,0,0,1-.259.037,2.376,2.376,0,0,1-.7.148,1.19,1.19,0,0,1-.518.148q-.444.148-.629.222a.652.652,0,0,1-.3.074.656.656,0,0,0-.3.074,1.414,1.414,0,0,1-.3.111.834.834,0,0,0-.3.148q-.185.075-.629.222a1.932,1.932,0,0,1-.259.111,2.08,2.08,0,0,0-.259.111,1.612,1.612,0,0,0-.592.3,1.4,1.4,0,0,0-.48.148,5.041,5.041,0,0,0-1.849,1.59,2.538,2.538,0,0,0-.592,1.4A.811.811,0,0,0,3847.091,589.149Zm21.813,6.914,5.952-6.211-.813.222-5.139.961Zm0,30.206,6.026,1.109-6.026-6.211Z" transform="translate(-3531.757 -583.16)" fill="url(#linear-gradient)"/>
        <path id="Path_2030" data-name="Path 2030" d="M4254.083,640.416v-.222l12.386-48.618h.111V591.5h14.826v.074a.066.066,0,0,0,.075.074l12.45,48.618v.074l-.074.075v.074h-9.834q-.222,0-.259-.148l-2.357-9.576H4266.58l-2.44,9.575a.066.066,0,0,1-.074.075v.074h-9.834A.211.211,0,0,1,4254.083,640.416Zm6.387-5.01,3.4,4.416,2.329-9.5-3.328-4.148Zm2.625-10.225,5.546-4.478,5.139-20.808-3.18-2.958Zm.222.3h21.3l-5.546-4.474h-10.2l-4.77,3.877Zm3.808-33.608,3.475,4.474h6.8l3.512-4.474Zm1.972,28.764h9.814l-4.9-19.894Zm8.4-24.011,7.639,29.063,2.556,9.723,5.361,4.337-10.569-41.591-1.514-6.063Z" transform="translate(-3904.245 -590.578)" fill="url(#linear-gradient)"/>
        <path id="Path_2031" data-name="Path 2031" d="M4678.83,640.268V591.576l.074-.074h34.31v.074h.074v9.832l-.074.075a.066.066,0,0,1-.074.075h-24.18v9.428h19.226l.11.073h.074v.073a.065.065,0,0,1,.074.073v9.724l-.074.075a.066.066,0,0,1-.074.075H4688.96v19.188a.212.212,0,0,1-.074.148l-.074.074h-9.761A.2.2,0,0,1,4678.83,640.268Zm.666-48.4,4.474,4.4h24.143l4.474-4.4Zm4.622,23.625,4.4-4.4v-9.617l-4.4-4.537Zm0,19.89,4.4,4.474V621.005l-4.4-4.5Zm.222-19.595h18.93l4.474-4.437h-18.93Zm19.336.149,4.289,4.43v-8.72Zm4.843-19.445,4.289,4.388v-8.721Z" transform="translate(-4281.936 -590.578)" fill="url(#linear-gradient)"/>
        <path id="Path_2032" data-name="Path 2032" d="M5063.609,640.268V591.576l.074-.074h34.311v.074h.074v9.832l-.074.075a.066.066,0,0,1-.074.075h-24.18v9.428h19.226l.111.073h.074v.073a.065.065,0,0,1,.074.073v9.724l-.074.075a.065.065,0,0,1-.074.075h-19.336v9.28h24.18a.065.065,0,0,0,.074.074v.074h.074v9.761a.213.213,0,0,1-.074.148l-.074.074h-34.088A.2.2,0,0,1,5063.609,640.268Zm.666-48.47,4.474,4.474h24.143l4.474-4.474Zm4.622,23.7,4.474-4.4v-9.617l-4.474-4.537Zm0,19.447,4.474-4.461v-9.478l-4.474-4.5Zm.222-19.151h18.93l4.474-4.437h-18.93Zm0,19.41h23.773l4.474-4.474h-23.773Zm19.336-19.261,4.289,4.43v-8.72ZM5093.3,596.5l4.363,4.388V592.1Zm0,38.858,4.363,4.4v-8.8Z" transform="translate(-4624.085 -590.578)" fill="url(#linear-gradient)"/>
      </g>
    </g>
  </g>
</svg>
